# xmcd
#
# Track frame offsets: 
#        150
#        20080
#        37567
#        51517
#        84395
#        106485
#        131400
#        153680
#
# Disc length: 2251 seconds
#
# Revision: 4
# Processed by: cddbd v1.4PL0 Copyright (c) Steve Scherf et al.
# Submitted via: ExactAudioCopy v0.90b4
#
DISCID=6008c908
DTITLE=Gary Moore - Back On The Streets
DYEAR=1978
DGENRE=
TTITLE0=Back On The Streets
TTITLE1=Don't Believe A Word
TTITLE2=Fanatical Fascists
TTITLE3=Flight Of The Snow Moose
TTITLE4=Hurricane
TTITLE5=Song For Donna
TTITLE6=What Would You Rather Bee Wasp
TTITLE7=Parisienne Walkways
EXTD=
EXTT0=
EXTT1=
EXTT2=
EXTT3=
EXTT4=
EXTT5=
EXTT6=
EXTT7=
PLAYORDER=
